<svg width="61" height="61" viewBox="0 0 61 61" fill="none" xmlns="http://www.w3.org/2000/svg">
<circle cx="30.265" cy="30.3324" r="30.265" fill="#191919"/>
<path fill-rule="evenodd" clip-rule="evenodd" d="M39.6635 33.6887V27.9268V22.1649H41.731C42.8665 22.1649 43.9934 22.2073 44.2392 22.2496C45.3153 22.453 45.3661 22.4954 49.2469 26.3847C52.6278 29.7655 52.8736 30.0367 53.043 30.4943C53.2125 30.9518 53.221 31.1382 53.221 33.7142V36.4426L52.9837 36.951C52.7041 37.5272 52.1957 38.0271 51.6195 38.2898C51.306 38.4339 51.0179 38.4762 50.196 38.5016L49.1537 38.5355V38.8914C49.1537 39.654 48.6538 40.7047 47.9759 41.3911C47.171 42.1876 46.2897 42.5435 45.0865 42.5435C43.8833 42.5435 43.002 42.1876 42.1971 41.3911C41.5107 40.6963 41.0193 39.654 41.0193 38.8829V38.5186H33.5627H26.106V38.8829C26.106 39.654 25.6146 40.6963 24.9282 41.3911C24.1233 42.1876 23.242 42.5435 22.0388 42.5435C20.8356 42.5435 19.9543 42.1876 19.1494 41.3911C18.463 40.6963 17.9716 39.654 17.9716 38.8829V38.5186H15.4804C13.0909 38.5186 12.9892 38.5101 12.7689 38.3406L12.5486 38.1712V35.9257V33.6887H26.106H39.6635ZM47.6285 26.8168C46.0694 25.2831 44.6374 23.9358 44.451 23.8426C44.1883 23.6986 43.9256 23.6477 43.2393 23.6223L42.3665 23.5884L42.392 26.4016L42.4174 29.2148L42.6546 29.4181L42.8919 29.6215L46.6795 29.613H50.4671L47.6285 26.8168ZM24.6486 38.3237C24.5724 37.2137 23.8945 36.3324 22.8523 35.9935C22.1744 35.7647 21.8016 35.7647 21.2084 35.9681C20.6492 36.163 20.217 36.5019 19.8611 37.0273C19.5053 37.5526 19.3866 38.0017 19.429 38.6881C19.4629 39.3405 19.6917 39.8404 20.1916 40.3573C20.7085 40.8827 21.2508 41.103 22.0812 41.103C22.6743 41.0945 22.8184 41.0691 23.2081 40.8488C24.208 40.3065 24.7164 39.3998 24.6486 38.3237ZM47.6963 38.3237C47.62 37.2137 46.9422 36.3324 45.8999 35.9935C45.2221 35.7647 44.8492 35.7647 44.2561 35.9681C43.6969 36.163 43.2647 36.5019 42.9088 37.0273C42.5529 37.5526 42.4343 38.0017 42.4767 38.6881C42.5106 39.3405 42.7394 39.8404 43.2393 40.3573C43.7562 40.8827 44.2985 41.103 45.1289 41.103C45.722 41.0945 45.8661 41.0691 46.2558 40.8488C47.2557 40.3065 47.7641 39.3998 47.6963 38.3237ZM12.6418 18.4278C12.6926 18.3346 12.8113 18.2245 12.9129 18.1821C13.0231 18.1398 18.4715 18.1143 25.5383 18.1228L37.9858 18.1398L38.1468 18.3431C38.2993 18.5295 38.3078 18.7753 38.3078 25.4777V32.4175H25.4282H12.5486V25.5032C12.5486 20.775 12.574 18.538 12.6418 18.4278Z" fill="url(#paint0_linear_1_9706)"/>
<defs>
<linearGradient id="paint0_linear_1_9706" x1="16.4905" y1="42.5731" x2="30.0278" y2="13.6981" gradientUnits="userSpaceOnUse">
<stop stop-color="#C49337"/>
<stop offset="0.275" stop-color="#FCF7CD"/>
<stop offset="0.495" stop-color="#EDCD78"/>
<stop offset="0.63" stop-color="#A7602B"/>
<stop offset="0.825" stop-color="#FDF8D0"/>
<stop offset="1" stop-color="#BB9138"/>
</linearGradient>
</defs>
</svg>
