<svg width="61" height="61" viewBox="0 0 61 61" fill="none" xmlns="http://www.w3.org/2000/svg">
<circle cx="30.2675" cy="30.4228" r="30.265" fill="#191919"/>
<path fill-rule="evenodd" clip-rule="evenodd" d="M21.2283 29.1529C21.6428 27.5093 23.072 26.1374 24.7298 25.7943C25.0156 25.7372 25.6659 25.6872 26.2447 25.6872L27.2523 25.68L28.7458 30.1462C29.5604 32.6043 30.2464 34.6123 30.2678 34.6123C30.2893 34.6123 30.9753 32.6043 31.7899 30.1462L33.2834 25.68H34.2409C35.4485 25.68 36.1202 25.8086 36.9134 26.1945C38.0425 26.7376 38.9929 27.9167 39.3073 29.1457C39.4002 29.5102 39.4145 30.6178 39.4145 37.049V44.5307L39.1858 44.8737C39.0429 45.0809 38.8285 45.281 38.6356 45.3811L38.3212 45.5454H30.2678H22.2145L21.9001 45.3811C21.7286 45.2882 21.4927 45.0738 21.3713 44.9094L21.1569 44.6022L21.1354 37.0919C21.1212 30.5606 21.1354 29.5316 21.2283 29.1529ZM15.4831 20.6063C16.0333 19.4916 17.1909 18.5412 18.4057 18.2125C18.6844 18.1339 19.0631 18.1124 19.7277 18.1339C20.5066 18.1482 20.7353 18.1839 21.1354 18.3339C22.5003 18.8484 23.5078 19.8774 23.9866 21.2494C24.1295 21.6425 24.151 21.8568 24.151 22.6786C24.151 23.5004 24.1295 23.7148 23.9866 24.1078C23.515 25.4726 22.4931 26.5159 21.1354 27.0233C20.4923 27.2662 19.1703 27.3305 18.4772 27.1519C17.1981 26.8232 16.0405 25.8942 15.4902 24.7509C14.8257 23.3718 14.8185 21.964 15.4831 20.6063ZM24.3293 18.077C24.9296 15.8546 26.7018 14.1396 28.9384 13.6323C29.2385 13.568 29.7173 13.5394 30.4462 13.5608C31.4323 13.5751 31.5752 13.5965 32.1969 13.8109C33.8047 14.354 35.0338 15.433 35.7698 16.9336C36.22 17.8412 36.3629 18.4771 36.3629 19.6062C36.3701 20.6137 36.2915 21.0568 35.9699 21.8928C35.3625 23.4721 33.8547 24.9084 32.2684 25.4229C29.9174 26.1946 27.5092 25.6015 25.8228 23.8365C25.0582 23.0362 24.6009 22.2001 24.2936 21.0353C24.1078 20.3422 24.1221 18.8273 24.3293 18.077ZM39.7718 18.2198C38.1354 18.6486 36.8348 19.992 36.4418 21.6427C36.2775 22.3715 36.3346 23.472 36.5776 24.1651C37.0492 25.5086 38.0425 26.5161 39.4002 27.0235C40.0433 27.2593 41.3653 27.3236 42.0584 27.1521C43.3233 26.8377 44.488 25.9016 45.0454 24.7511C45.7171 23.3791 45.7171 21.9785 45.0454 20.6065C44.488 19.4632 43.3375 18.5271 42.0942 18.2127C41.5582 18.0769 40.3006 18.0769 39.7718 18.2198ZM14.0396 28.9173C13.1892 29.2103 12.6175 29.7176 12.2317 30.5322L12.0101 31.0039L11.9887 36.206C11.9744 41.2724 11.9744 41.4082 12.1173 41.6797C12.2888 42.0227 12.6819 42.3514 13.0391 42.4658C13.2249 42.5158 14.3111 42.5444 16.462 42.5444H19.6133L19.6347 36.7348C19.6562 30.9753 19.6633 30.9253 19.8205 30.3607C19.9063 30.0463 20.0921 29.5533 20.2278 29.2674L20.4708 28.7529H17.491L17.4792 28.7529C14.5824 28.7601 14.4963 28.7603 14.0396 28.9173ZM40.715 30.3607C40.6292 30.0463 40.4434 29.5533 40.3077 29.2674L40.0647 28.7529H43.0159C45.7599 28.7529 46.01 28.7601 46.4316 28.8958C47.2891 29.1602 47.9108 29.7033 48.3039 30.5322L48.5254 31.0039L48.5468 36.1989C48.5611 41.2724 48.5611 41.4082 48.4253 41.6797C48.2467 42.0227 47.8537 42.3514 47.4964 42.4658C47.3106 42.5158 46.2244 42.5444 44.0735 42.5444H40.9222L40.9008 36.7348C40.8793 30.9753 40.8722 30.9253 40.715 30.3607Z" fill="url(#paint0_linear_1_9684)"/>
<defs>
<linearGradient id="paint0_linear_1_9684" x1="15.527" y1="45.5842" x2="23.857" y2="11.8311" gradientUnits="userSpaceOnUse">
<stop stop-color="#C49337"/>
<stop offset="0.275" stop-color="#FCF7CD"/>
<stop offset="0.495" stop-color="#EDCD78"/>
<stop offset="0.63" stop-color="#A7602B"/>
<stop offset="0.825" stop-color="#FDF8D0"/>
<stop offset="1" stop-color="#BB9138"/>
</linearGradient>
</defs>
</svg>
