<svg width="61" height="61" viewBox="0 0 61 61" fill="none" xmlns="http://www.w3.org/2000/svg">
<circle cx="30.2638" cy="30.3205" r="30.2638" fill="#191919"/>
<path fill-rule="evenodd" clip-rule="evenodd" d="M40.2981 34.5063C39.7672 34.5992 38.9775 34.8779 38.4997 35.1368C35.4137 36.8224 34.4515 40.7511 36.4026 43.691C37.8427 45.8611 40.6565 46.8433 43.1385 46.0337C44.9767 45.4364 46.3505 44.0826 46.9942 42.2244L46.9977 42.2141C47.2133 41.5739 47.2198 41.5545 47.2132 40.3728C47.2132 39.2447 47.2066 39.1451 47.0274 38.6142C46.3637 36.61 44.9037 35.1965 42.9062 34.6258C42.3687 34.4665 40.8755 34.4001 40.2981 34.5063ZM43.8419 37.4263C44.1074 37.6718 44.2202 37.9373 44.1804 38.2426C44.1339 38.6408 41.5126 43.1601 41.2007 43.3791C40.8887 43.5981 40.3645 43.5583 40.0924 43.2995C39.9862 43.1999 39.5814 42.5628 39.1898 41.8859C38.5793 40.8175 38.4797 40.6118 38.4797 40.3529C38.4797 39.6893 39.2363 39.2048 39.807 39.5035C40.0459 39.6296 40.2251 39.8353 40.4574 40.2534C40.5636 40.4458 40.6764 40.5985 40.7029 40.5852C40.7295 40.5786 41.1542 39.8818 41.6387 39.0456C42.6474 37.2936 42.7469 37.1874 43.3243 37.2338C43.5698 37.2538 43.7158 37.3068 43.8419 37.4263ZM16.1747 26.0984C16.2544 25.9856 16.4203 25.8462 16.5397 25.7865C16.6857 25.7135 16.9379 25.6737 17.2963 25.6737H17.8405L17.8604 26.417C17.8869 27.0474 17.9135 27.2067 18.0329 27.4058C18.3714 27.9433 19.0549 28.023 19.5062 27.5717L19.7451 27.3328L19.765 26.5032L19.7916 25.6737H20.7472H21.7028V28.3282V30.9828H22.6651H23.6274V28.3282V25.6737H24.5897H25.5519V26.417C25.5519 27.0474 25.5718 27.2001 25.6846 27.3859C26.0895 28.0495 27.0318 28.0097 27.3437 27.3129C27.4433 27.1005 27.4765 26.8815 27.4765 26.3506V25.6737H28.4056H29.3346V28.3282V30.9828H30.2969H31.2592V28.3282V25.6737H32.2215H33.1837V26.4701V27.2731L33.4359 27.5385C33.7412 27.8703 34.1394 27.95 34.5309 27.7642C34.949 27.5651 35.0685 27.2797 35.1016 26.417L35.1216 25.6737H36.044H36.9665V28.3282V30.9828H37.8955H38.8246V28.3282V25.6737H39.7869H40.7492V26.4502C40.7492 27.147 40.7625 27.2465 40.9018 27.4456C41.1142 27.7575 41.3929 27.8902 41.7579 27.8504C41.9238 27.8305 42.1362 27.7575 42.2291 27.6912C42.5543 27.4456 42.6339 27.2266 42.6605 26.4236L42.6936 25.6737H43.2179C43.8815 25.6737 44.2001 25.8263 44.3992 26.2378C44.5253 26.4966 44.5319 26.6492 44.5319 28.7397V30.9762L45.5805 30.9961C46.5361 31.016 46.6423 31.0292 46.8281 31.162C47.2064 31.4341 47.2528 31.6265 47.2528 33.0069C47.2528 34.0222 47.2329 34.2877 47.14 34.4802C47.0803 34.6062 46.994 34.7257 46.9475 34.7456C46.8945 34.7655 46.6821 34.6195 46.4631 34.4271C45.6335 33.6772 44.4191 33.0401 43.2245 32.7348C42.3419 32.5025 40.9881 32.4494 40.0855 32.6021C38.526 32.8742 37.1191 33.571 35.9246 34.6593L35.5197 35.031H24.7755C14.6882 35.031 14.0246 35.0243 13.8056 34.9115C13.6795 34.8518 13.5069 34.6992 13.4273 34.5731C13.2813 34.3541 13.2747 34.2877 13.2747 33.0069C13.2747 31.7261 13.2813 31.6597 13.4273 31.4407C13.6861 31.0492 13.9117 30.9828 15.0134 30.9828H15.9889L16.0088 28.6402L16.009 28.6183C16.0287 26.3503 16.0292 26.2969 16.1747 26.0984ZM16.1681 14.7431C16.2411 14.6435 16.407 14.5042 16.5331 14.4444C16.6924 14.3582 16.918 14.325 17.3096 14.325H17.8537V14.9355C17.8537 15.7053 17.9267 15.9642 18.2121 16.2429C18.6501 16.6676 19.3204 16.5681 19.6456 16.0372C19.7584 15.8513 19.7783 15.6987 19.7783 15.0682V14.325H20.7406H21.7028V16.9795V19.6341H22.6651H23.6274V16.9795V14.325H24.5897H25.5519V15.0682C25.5519 15.6987 25.5718 15.8513 25.6846 16.0372C26.0828 16.6875 26.9787 16.661 27.3305 15.9841C27.4566 15.7385 27.4765 15.5859 27.4765 15.0085V14.325H28.4056H29.3346V16.9795V19.6341H30.2969H31.2592V16.9795V14.325H32.2148H33.1705L33.197 15.1479C33.2169 15.9243 33.2302 15.9841 33.3828 16.15C33.8739 16.6742 34.5906 16.6145 34.949 16.0172C35.0419 15.8646 35.0817 15.6456 35.095 15.0682L35.1216 14.325H36.044H36.9665V16.9795V19.6341H37.8956H38.8246V16.9795V14.325H39.7869H40.7492V15.1213V15.9243L41.0014 16.1964C41.2204 16.4287 41.3066 16.4685 41.5854 16.4951C41.8508 16.5216 41.9504 16.4951 42.1362 16.369C42.5742 16.0703 42.6273 15.931 42.6605 15.0882L42.6936 14.325H43.2179C43.8815 14.325 44.2001 14.4776 44.3992 14.8891C44.5253 15.1479 44.5319 15.3005 44.5319 17.3976V19.6341H45.4809C46.3436 19.6341 46.4631 19.6473 46.7219 19.7867C47.2263 20.0522 47.2595 20.1915 47.2395 21.7378C47.2196 23.231 47.1931 23.3239 46.7153 23.5628C46.5029 23.6756 45.5805 23.6822 30.2306 23.6822C14.1241 23.6822 13.9715 23.6822 13.7525 23.5495C13.3078 23.2774 13.2747 23.1381 13.2747 21.6714C13.2747 20.2181 13.3012 20.0986 13.6861 19.8199C13.8918 19.6805 13.9847 19.6672 14.947 19.6473L15.9889 19.6208L16.0088 17.2782C16.0287 15.0284 16.0354 14.9222 16.1681 14.7431ZM15.9956 40.0212C15.9956 37.4595 15.9956 37.4396 16.5265 37.1675C16.7587 37.0547 16.9313 37.0215 17.3295 37.0215H17.8405L17.867 37.7648C17.8869 38.3023 17.9267 38.5744 18.0064 38.7271C18.1657 39.0191 18.5041 39.2115 18.8757 39.2115C19.1478 39.2115 19.2208 39.1783 19.4664 38.9527L19.7451 38.6872L19.765 37.8577L19.7916 37.0215H20.7472H21.7028V39.6429V42.2642H22.6651H23.6274V39.6429V37.0215H24.5897H25.5519V37.7515C25.5519 38.5678 25.6117 38.747 25.9501 39.039C26.2156 39.258 26.6735 39.2779 26.9986 39.0788C27.3504 38.8664 27.4765 38.5014 27.4765 37.6984V37.0215H28.4056H29.3346V39.6429V42.2642H30.2969H31.2592V39.6429V37.0215H32.2215H33.1837V37.8046C33.1837 38.5877 33.2302 38.7669 33.4824 38.9792C33.5487 39.0323 33.5487 39.185 33.4956 39.6694C33.3696 40.7711 33.5952 42.2244 34.0664 43.3858C34.4314 44.2552 35.4202 45.7019 35.9113 46.0602C36.0175 46.1399 36.1037 46.2262 36.1037 46.2593C36.1037 46.2859 31.1397 46.3124 25.0741 46.3124C14.7015 46.3124 14.0246 46.3058 13.8056 46.193C13.6795 46.1332 13.5069 45.9806 13.4273 45.8545C13.2813 45.6355 13.2747 45.5692 13.2747 44.2883C13.2747 43.0075 13.2813 42.9345 13.4273 42.7288C13.6994 42.324 13.9117 42.2642 15.0134 42.2642H15.9956V40.0212Z" fill="url(#paint0_linear_1_9672)"/>
<defs>
<linearGradient id="paint0_linear_1_9672" x1="16.5678" y1="46.3542" x2="25.4518" y2="12.9065" gradientUnits="userSpaceOnUse">
<stop stop-color="#C49337"/>
<stop offset="0.275" stop-color="#FCF7CD"/>
<stop offset="0.495" stop-color="#EDCD78"/>
<stop offset="0.63" stop-color="#A7602B"/>
<stop offset="0.825" stop-color="#FDF8D0"/>
<stop offset="1" stop-color="#BB9138"/>
</linearGradient>
</defs>
</svg>
