<svg width="61" height="62" viewBox="0 0 61 62" fill="none" xmlns="http://www.w3.org/2000/svg">
<circle cx="30.2677" cy="31.2304" r="30.265" fill="#191919"/>
<path d="M23.5202 15.9732C19.9145 17.2851 16.5602 18.5026 16.0732 18.6833L15.1855 19.0054L15.217 26.2874C15.2484 34.2057 15.2248 33.7736 15.7119 35.6825C17.008 40.7414 20.7943 44.8733 26.6545 47.6149C27.5736 48.0469 29.0975 48.6204 29.8045 48.8011C30.2601 48.9189 30.3073 48.9189 30.8886 48.7539C32.7974 48.2276 35.2326 47.0807 37.1808 45.8003C41.1713 43.1844 43.8186 39.6888 44.8398 35.6825C45.3268 33.7736 45.3033 34.2057 45.3347 26.2874C45.3661 19.3432 45.3583 19.0054 45.2247 18.9583C43.2452 18.1963 30.3858 13.5694 30.2601 13.5773C30.158 13.5773 27.1258 14.6535 23.5202 15.9732ZM37.8171 26.256L38.6419 27.0808L33.1981 32.5246L27.7621 37.9606L24.8399 35.0383L21.9098 32.1083L22.7582 31.2677L23.5987 30.4193L25.6804 32.501L27.7621 34.5827L32.3418 30.003C34.8556 27.4893 36.9294 25.4311 36.953 25.4311C36.9765 25.4311 37.3614 25.8003 37.8171 26.256Z" fill="url(#paint0_linear_1_9698)"/>
<defs>
<linearGradient id="paint0_linear_1_9698" x1="18.109" y1="48.9271" x2="29.8758" y2="13.2928" gradientUnits="userSpaceOnUse">
<stop stop-color="#C49337"/>
<stop offset="0.275" stop-color="#FCF7CD"/>
<stop offset="0.495" stop-color="#EDCD78"/>
<stop offset="0.63" stop-color="#A7602B"/>
<stop offset="0.825" stop-color="#FDF8D0"/>
<stop offset="1" stop-color="#BB9138"/>
</linearGradient>
</defs>
</svg>
