<svg width="99" height="99" viewBox="0 0 79 79" fill="none" xmlns="http://www.w3.org/2000/svg">
<circle cx="39.7956" cy="39.2314" r="39.0705" fill="#191919"/>
<path fill-rule="evenodd" clip-rule="evenodd" d="M20.6893 24.7942C21.2092 22.7797 22.8554 21.1443 24.8157 20.6678C25.2164 20.5703 26.0829 20.5054 27.0901 20.5054L28.7363 20.4945L28.5739 21.0469C28.3248 21.9133 28.4222 23.2996 28.7905 24.1119C29.1912 24.9783 29.7544 25.639 30.5125 26.1263L30.5478 26.1492C30.7405 26.2743 30.9009 26.3784 31.0702 26.4649C31.9109 26.8942 32.9731 26.8899 39.3079 26.8641L39.6425 26.8628L46.7906 26.8303L47.4187 26.5704C48.6426 26.083 49.6065 25.0758 50.0938 23.7653C50.3863 23.0072 50.4188 21.6534 50.1588 20.9494L49.9964 20.4945H51.5884C53.4188 20.4945 54.231 20.6461 55.2274 21.166C56.0614 21.6101 57.1986 22.7472 57.5993 23.5379L57.6311 23.6014L57.6312 23.6016C57.7181 23.7751 57.7922 23.9229 57.8552 24.0752C58.2168 24.9488 58.2168 25.9721 58.2166 32.8624V32.8624L58.2166 33.296V41.278L57.7509 41.6029C57.5018 41.7762 54.4368 44.7871 50.9494 48.2961C45.5342 53.733 44.5703 54.7402 44.3862 55.2059C44.2671 55.4983 43.9855 56.8088 43.7581 58.1084C43.379 60.372 43.3573 60.6753 43.5631 61.5092L43.6173 61.7583H34.4764L33.9865 61.7583C25.8853 61.7584 24.8396 61.7585 23.9726 61.3648C23.8441 61.3065 23.7196 61.2395 23.5765 61.1626L23.5765 61.1626L23.5161 61.1301C22.7363 60.7186 21.4908 59.4514 21.1334 58.715C21.103 58.6521 21.0741 58.5943 21.0467 58.5395L21.0467 58.5394C21.003 58.4519 20.9629 58.3718 20.9262 58.2901C20.5254 57.3982 20.5255 56.3261 20.5267 43.5486L20.5269 41.1806C20.5269 27.5668 20.5485 25.3249 20.6893 24.7942ZM32.4836 39.0903C32.9385 38.473 32.6461 37.4008 31.8988 37.0109C31.6714 36.8917 31.2381 36.8484 30.415 36.8484C29.137 36.8484 28.7363 36.9892 28.3681 37.5524C28.0973 37.9639 28.1082 38.7112 28.3897 39.0795C28.8879 39.7509 29.0937 39.8268 30.4367 39.8268C31.7688 39.8268 31.9854 39.7509 32.4836 39.0903ZM49.8447 39.621C50.8411 39.0145 50.8411 37.6715 49.8447 37.065C49.509 36.8592 49.2599 36.8484 43.3248 36.8484C37.7905 36.8484 37.119 36.8701 36.7833 37.0325C35.7977 37.5199 35.7436 38.9062 36.6858 39.5777L37.0432 39.8268H43.2707C49.2057 39.8268 49.509 39.8159 49.8447 39.621ZM32.6677 48.112C32.8519 47.5055 32.4945 46.8015 31.8555 46.4983C31.4872 46.3142 31.184 46.2708 30.3717 46.2708C29.0721 46.2708 28.6064 46.4983 28.2814 47.2672C28.0865 47.7546 28.0757 47.7871 28.2598 48.2636C28.5522 49.0326 28.9313 49.2384 30.1443 49.2817C30.6966 49.3033 31.3248 49.2925 31.5197 49.26C31.9854 49.1734 32.5053 48.6535 32.6677 48.112ZM45.8483 49.0976C46.9422 48.5344 46.9205 47.0181 45.8158 46.4874C45.3935 46.2817 45.1335 46.2708 41.3104 46.2708C36.9566 46.2817 36.8699 46.2925 36.3501 46.8557C36.1551 47.0506 36.0685 47.2997 36.036 47.7113C35.9927 48.2095 36.0252 48.3286 36.2851 48.6319L36.3058 48.6565C36.4142 48.7855 36.501 48.8888 36.6043 48.9715C37.019 49.3035 37.6995 49.3035 41.1123 49.3034L41.3212 49.3033C45.166 49.3033 45.4693 49.2925 45.8483 49.0976ZM31.7472 19.6822C32.5811 17.592 32.8302 17.1804 33.4584 16.8772C33.7508 16.7364 34.5631 16.7039 39.3501 16.7039L39.6522 16.7039C44.4442 16.7037 45.1832 16.7037 45.6375 17.0633C45.7204 17.1288 45.7938 17.2063 45.8805 17.298L45.9025 17.3212C46.2058 17.6461 47.6245 21.0144 47.8303 21.8808C48.0361 22.8014 47.5271 23.8086 46.6715 24.1877C46.2274 24.3935 45.8917 24.3935 39.231 24.3718L32.2671 24.3393L31.8122 24.036C31.2273 23.657 30.9241 23.0613 30.9241 22.314C30.9241 21.8483 31.0866 21.3393 31.7472 19.6822ZM60.6534 43.0326C59.8194 43.1409 59.1155 43.5633 58.1082 44.5814L57.1877 45.5128L59.7111 48.0363L62.2346 50.5489L63.1769 49.5742C64.3574 48.372 64.639 47.8197 64.6931 46.6825C64.7473 45.567 64.5307 44.928 63.8375 44.1698C62.9927 43.2384 61.9422 42.8702 60.6534 43.0326ZM46.5845 56.3972C46.6279 56.1481 47.7217 54.9893 50.9925 51.7076C53.386 49.3141 55.3896 47.3538 55.4546 47.3538C55.5954 47.3538 60.3824 52.1409 60.3824 52.2817C60.3824 52.4224 51.6965 61.1084 51.5448 61.1084C51.4987 61.1084 50.8392 61.2185 50.002 61.3583C49.8566 61.3825 49.7059 61.4077 49.5521 61.4333C47.2777 61.8232 46.7578 61.8341 46.3788 61.5416C45.8481 61.1192 45.8264 60.7835 46.1838 58.6499C46.3679 57.5885 46.552 56.5705 46.5845 56.3972Z" fill="url(#paint0_linear_1_9550)"/>
<defs>
<linearGradient id="paint0_linear_1_9550" x1="24.8079" y1="61.8129" x2="38.209" y2="15.2385" gradientUnits="userSpaceOnUse">
<stop stop-color="#C49337"/>
<stop offset="0.275" stop-color="#FCF7CD"/>
<stop offset="0.495" stop-color="#EDCD78"/>
<stop offset="0.63" stop-color="#A7602B"/>
<stop offset="0.825" stop-color="#FDF8D0"/>
<stop offset="1" stop-color="#BB9138"/>
</linearGradient>
</defs>
</svg>
