<svg width="79" height="79" viewBox="0 0 79 79" fill="none" xmlns="http://www.w3.org/2000/svg">
<circle cx="39.7951" cy="39.7795" r="39.07" fill="#191919"/>
<path fill-rule="evenodd" clip-rule="evenodd" d="M51.9277 44.1122V36.6739V29.2357H54.5968C56.0625 29.2357 57.5174 29.2904 57.8346 29.3451C59.2238 29.6076 59.2894 29.6623 64.2993 34.6831C68.6638 39.0476 68.981 39.3976 69.1997 39.9883C69.4185 40.579 69.4295 40.8197 69.4295 44.145V47.6672L69.1232 48.3235C68.7622 49.0673 68.1059 49.7127 67.3621 50.0518C66.9573 50.2378 66.5854 50.2925 65.5244 50.3253L64.1789 50.369V50.8284C64.1789 51.8129 63.5336 53.1693 62.6585 54.0553C61.6193 55.0835 60.4817 55.543 58.9284 55.543C57.3752 55.543 56.2375 55.0835 55.1984 54.0553C54.3124 53.1584 53.6779 51.8129 53.6779 50.8175V50.3471H44.052H34.426V50.8175C34.426 51.8129 33.7916 53.1584 32.9056 54.0553C31.8664 55.0835 30.7288 55.543 29.1755 55.543C27.6222 55.543 26.4846 55.0835 25.4455 54.0553C24.5594 53.1584 23.925 51.8129 23.925 50.8175V50.3471H20.7091C17.6244 50.3471 17.4931 50.3362 17.2087 50.1174L16.9243 49.8987V46.9999V44.1122H34.426H51.9277ZM62.21 35.241C60.1973 33.2611 58.3487 31.5219 58.108 31.4015C57.7689 31.2156 57.4298 31.15 56.5438 31.1171L55.4171 31.0734L55.45 34.705L55.4828 38.3366L55.7891 38.5991L56.0953 38.8616L60.9849 38.8507H65.8744L62.21 35.241ZM32.5446 50.0956C32.4461 48.6626 31.5711 47.525 30.2256 47.0875C29.3505 46.7921 28.8692 46.7921 28.1035 47.0546C27.3816 47.3062 26.8237 47.7438 26.3643 48.422C25.9049 49.1002 25.7517 49.6799 25.8064 50.5659C25.8502 51.4082 26.1455 52.0536 26.7909 52.7208C27.4582 53.399 28.1582 53.6834 29.2302 53.6834C29.9959 53.6725 30.1819 53.6397 30.685 53.3553C31.9758 52.6552 32.6321 51.4848 32.5446 50.0956ZM62.2975 50.0956C62.1991 48.6626 61.324 47.525 59.9785 47.0875C59.1034 46.7921 58.6221 46.7921 57.8564 47.0546C57.1345 47.3062 56.5766 47.7438 56.1172 48.422C55.6578 49.1002 55.5047 49.6799 55.5593 50.5659C55.6031 51.4082 55.8984 52.0536 56.5438 52.7208C57.2111 53.399 57.9111 53.6834 58.9831 53.6834C59.7488 53.6725 59.9348 53.6397 60.438 53.3553C61.7287 52.6552 62.385 51.4848 62.2975 50.0956ZM17.0446 24.4118C17.1103 24.2915 17.2634 24.1493 17.3947 24.0946C17.5369 24.0399 24.5704 24.0071 33.6931 24.0181L49.7619 24.0399L49.9697 24.3025C50.1666 24.5431 50.1776 24.8603 50.1776 33.5127V42.4714H33.5509H16.9243V33.5456C16.9243 27.4418 16.9571 24.554 17.0446 24.4118Z" fill="url(#paint0_linear_1_9568)"/>
<defs>
<linearGradient id="paint0_linear_1_9568" x1="22.013" y1="55.5812" x2="39.4882" y2="18.306" gradientUnits="userSpaceOnUse">
<stop stop-color="#C49337"/>
<stop offset="0.275" stop-color="#FCF7CD"/>
<stop offset="0.495" stop-color="#EDCD78"/>
<stop offset="0.63" stop-color="#A7602B"/>
<stop offset="0.825" stop-color="#FDF8D0"/>
<stop offset="1" stop-color="#BB9138"/>
</linearGradient>
</defs>
</svg>
