<svg width="79" height="79" viewBox="0 0 79 79" fill="none" xmlns="http://www.w3.org/2000/svg">
<circle cx="39.2614" cy="39.8454" r="39.07" fill="#191919"/>
<path d="M29.4721 17.4229C27.8191 17.8093 26.3808 19.3442 26.0588 21.0616C25.9085 21.8452 25.9085 57.8466 26.0588 58.6302C26.3378 60.0792 27.3253 61.3351 28.6671 61.9684L29.4399 62.3333L38.9394 62.3655C45.1865 62.387 48.6213 62.3548 48.9541 62.2797C50.6822 61.9147 52.1313 60.412 52.464 58.6302C52.6143 57.8466 52.6143 21.8452 52.464 21.0616C52.1313 19.312 50.7144 17.8093 49.0185 17.4229C48.4281 17.2833 30.041 17.2833 29.4721 17.4229ZM43.7696 21.7915C44.7142 22.2638 44.9074 23.4124 44.156 24.153L43.7696 24.5501H39.2614H34.7532L34.3668 24.153C33.6154 23.4124 33.8086 22.2638 34.7532 21.7915C35.0967 21.6198 35.5367 21.5983 39.2614 21.5983C42.986 21.5983 43.4261 21.6198 43.7696 21.7915ZM41.1506 55.5388C41.9019 56.2794 41.7087 57.428 40.7641 57.9003C40.4743 58.0505 40.1201 58.0935 39.2614 58.0935C37.9626 58.0935 37.544 57.9432 37.1361 57.3421C36.6638 56.6337 37.0073 55.5388 37.8123 55.1846C37.9304 55.1309 38.6388 55.0987 39.3902 55.1202L40.7641 55.1417L41.1506 55.5388Z" fill="url(#paint0_linear_1_9561)"/>
<defs>
<linearGradient id="paint0_linear_1_9561" x1="28.527" y1="62.4267" x2="48.1306" y2="21.3534" gradientUnits="userSpaceOnUse">
<stop stop-color="#C49337"/>
<stop offset="0.275" stop-color="#FCF7CD"/>
<stop offset="0.495" stop-color="#EDCD78"/>
<stop offset="0.63" stop-color="#A7602B"/>
<stop offset="0.825" stop-color="#FDF8D0"/>
<stop offset="1" stop-color="#BB9138"/>
</linearGradient>
</defs>
</svg>
